<svg width="128" height="64" viewBox="0 0 128 64" fill="none" xmlns="http://www.w3.org/2000/svg">
<mask id="mask0_241_4964" style="mask-type:alpha" maskUnits="userSpaceOnUse" x="0" y="0" width="128" height="64">
<rect width="128" height="64" fill="url(#paint0_linear_241_4964)"/>
</mask>
<g mask="url(#mask0_241_4964)">
<path opacity="0.2" d="M128 64V0L123.848 5.76904C119.697 11.5375 111.396 23.0721 103.095 29.8008C94.7938 36.53 86.4922 38.4526 78.1906 32.6848C75.0281 30.4875 71.8656 27.1742 68.7031 23.8608C63.564 18.4766 58.425 13.0923 53.2859 12.4971C46.0913 11.6639 38.8967 20.2174 31.7021 28.7709C30.5951 30.0869 29.4882 31.403 28.3812 32.6848C20.0797 42.298 11.7781 49.9885 3.47656 51.9111C2.31771 52.1795 1.15885 52.3355 0 52.3791V64H128Z" fill="#079455"/>
</g>
<path opacity="0.2" d="M128 33.7649V64H0V42.5232C3.44922 45.32 6.89258 47.9598 10.3359 49.971C21.3544 56.4068 32.3729 56.4068 43.3914 48.6838C48.9006 44.8223 54.4583 39.0302 60.0158 33.238C65.5734 27.4458 71.131 21.6537 76.6402 17.7922C87.6587 10.0693 98.6772 10.0693 109.696 17.7922C113.34 20.3466 116.985 23.7459 120.636 27.1518C123.087 29.4377 125.541 31.7266 128 33.7649Z" fill="#079455"/>
<defs>
<linearGradient id="paint0_linear_241_4964" x1="64" y1="0" x2="64" y2="64" gradientUnits="userSpaceOnUse">
<stop/>
<stop offset="1" stop-opacity="0"/>
</linearGradient>
</defs>
</svg>
