<svg width="24" height="20" viewBox="0 0 24 20" fill="none" xmlns="http://www.w3.org/2000/svg">
<path d="M1.58334 17V16C1.58334 14.1435 2.35157 12.363 3.71902 11.0503C5.08648 9.7375 6.94114 9 8.87501 9" stroke="black" stroke-width="1.5" stroke-linecap="round" stroke-linejoin="round"/>
<path d="M15.9625 9.31393C16.1206 9.14778 16.3131 9.01509 16.5276 8.9243C16.7421 8.83351 16.9739 8.78662 17.2083 8.78662C17.4428 8.78662 17.6746 8.83351 17.8891 8.9243C18.1036 9.01509 18.296 9.14778 18.4542 9.31393C18.7927 9.66993 19.2771 9.86293 19.7792 9.83993C20.0135 9.82969 20.2474 9.86644 20.4661 9.94785C20.6847 10.0293 20.8833 10.1535 21.0492 10.3127C21.215 10.4719 21.3444 10.6626 21.4292 10.8725C21.514 11.0824 21.5523 11.307 21.5417 11.5319C21.5177 12.0129 21.7187 12.4789 22.0896 12.8039C22.824 13.4459 22.824 14.5539 22.0896 15.1959C21.7187 15.5209 21.5177 15.9859 21.5417 16.4679C21.5523 16.6928 21.514 16.9174 21.4292 17.1273C21.3444 17.3373 21.215 17.5279 21.0492 17.6871C20.8833 17.8463 20.6847 17.9706 20.4661 18.052C20.2474 18.1334 20.0135 18.1702 19.7792 18.1599C19.5316 18.1488 19.2846 18.1902 19.0556 18.2811C18.8266 18.372 18.6212 18.5102 18.4542 18.6859C18.296 18.8521 18.1036 18.9848 17.8891 19.0756C17.6746 19.1663 17.4428 19.2132 17.2083 19.2132C16.9739 19.2132 16.7421 19.1663 16.5276 19.0756C16.3131 18.9848 16.1206 18.8521 15.9625 18.6859C15.7954 18.5102 15.5901 18.372 15.3611 18.2811C15.1321 18.1902 14.885 18.1488 14.6375 18.1599C14.4032 18.1702 14.1693 18.1334 13.9506 18.052C13.7319 17.9706 13.5333 17.8463 13.3675 17.6871C13.2017 17.5279 13.0722 17.3373 12.9874 17.1273C12.9026 16.9174 12.8643 16.6928 12.875 16.4679C12.8864 16.2302 12.8432 15.993 12.7483 15.7732C12.6534 15.5533 12.5092 15.3562 12.326 15.1959C12.153 15.0441 12.0147 14.8594 11.9202 14.6535C11.8256 14.4475 11.7768 14.225 11.7768 13.9999C11.7768 13.7749 11.8256 13.5523 11.9202 13.3464C12.0147 13.1405 12.153 12.9557 12.326 12.8039C12.6979 12.4789 12.899 12.0139 12.875 11.5319C12.8643 11.307 12.9026 11.0824 12.9874 10.8725C13.0722 10.6626 13.2017 10.4719 13.3675 10.3127C13.5333 10.1535 13.7319 10.0293 13.9506 9.94785C14.1693 9.86644 14.4032 9.82969 14.6375 9.83993C15.1385 9.86293 15.624 9.66993 15.9625 9.31293V9.31393Z" stroke="black" stroke-width="1.5"/>
<path d="M15.5042 14L16.6396 15.09L18.9125 12.91M8.87501 9C9.98008 9 11.0399 8.57857 11.8213 7.82843C12.6027 7.07828 13.0417 6.06087 13.0417 5C13.0417 3.93913 12.6027 2.92172 11.8213 2.17157C11.0399 1.42143 9.98008 1 8.87501 1C7.76994 1 6.71013 1.42143 5.92873 2.17157C5.14733 2.92172 4.70834 3.93913 4.70834 5C4.70834 6.06087 5.14733 7.07828 5.92873 7.82843C6.71013 8.57857 7.76994 9 8.87501 9Z" stroke="black" stroke-width="1.5" stroke-linecap="round" stroke-linejoin="round"/>
</svg>
