<svg width="637" height="240" viewBox="0 0 637 240" fill="none" xmlns="http://www.w3.org/2000/svg">
<line x1="1.5" y1="10.5" x2="635.5" y2="10.5" stroke="#F2F4F7" stroke-linecap="round"/>
<line x1="1.5" y1="56.6001" x2="635.5" y2="56.6001" stroke="#F2F4F7" stroke-linecap="round"/>
<line x1="1.5" y1="100.2" x2="635.5" y2="100.2" stroke="#F2F4F7" stroke-linecap="round"/>
<line x1="1.5" y1="143.8" x2="635.5" y2="143.8" stroke="#F2F4F7" stroke-linecap="round"/>
<line x1="1.5" y1="187.4" x2="635.5" y2="187.4" stroke="#F2F4F7" stroke-linecap="round"/>
<line x1="1.5" y1="231" x2="635.5" y2="231" stroke="#F2F4F7" stroke-linecap="round"/>
<mask id="mask0_279_1199" style="mask-type:alpha" maskUnits="userSpaceOnUse" x="1" y="46" width="635" height="166">
<rect width="635" height="166" transform="translate(1 46)" fill="url(#paint0_linear_279_1199)"/>
</mask>
<g mask="url(#mask0_279_1199)">
<path opacity="0.1" d="M15.3909 90.3089L1 93.854V212H636V50.7915L622.508 56.6793H608.118L601.372 62.1923H592.378C589.979 63.1112 585.002 64.9489 584.283 64.9489C583.563 64.9489 578.886 66.0515 576.637 66.6028L557.3 68.2567L546.057 70.4619L528.068 68.2567L518.624 66.6028L505.132 70.4619H491.191L479.499 66.6028C475.001 66.0515 465.827 64.9489 465.108 64.9489C464.388 64.9489 458.512 63.8463 455.664 63.295H448.468L431.379 64.9489L416.538 66.6028L409.792 70.4619L389.555 72.1159L379.212 73.7698L367.519 76.5263L356.276 83.142H351.329L337.838 81.4881L324.796 76.5263L313.553 73.7698H306.807L295.115 72.1159L278.475 73.7698H262.735L246.995 76.5263L231.255 79.8341L219.562 83.142L206.97 84.7959L189.881 83.142L176.39 84.7959L162.898 86.4498L150.306 84.7959L133.217 88.655L118.826 86.4498L104.435 88.655H90.4936L75.653 90.3089H60.3626L45.0722 91.9629L30.2316 88.655L15.3909 90.3089Z" fill="#7F56D9"/>
</g>
<path d="M1 93.854L15.3909 90.3089L30.2316 88.655L45.0722 91.9629L60.3626 90.3089H75.653L90.4936 88.655H104.435L118.826 86.4498L133.217 88.655L150.306 84.7959L162.898 86.4498L176.39 84.7959L189.881 83.142L206.97 84.7959L219.562 83.142L231.255 79.8341L246.995 76.5263L262.735 73.7698H278.475L295.115 72.1158L306.807 73.7698H313.553L324.796 76.5263L337.838 81.4881L351.329 83.142H356.276L367.519 76.5263L379.212 73.7698L389.555 72.1158L409.792 70.4619L416.538 66.6028L431.379 64.9489L448.468 63.295H455.664C458.512 63.8463 464.388 64.9489 465.108 64.9489C465.827 64.9489 475.001 66.0515 479.499 66.6028L491.191 70.4619H505.132L518.624 66.6028L528.068 68.2567L546.057 70.4619L557.3 68.2567L576.637 66.6028C578.886 66.0515 583.563 64.9489 584.283 64.9489C585.002 64.9489 589.979 63.1112 592.377 62.1923H601.372L608.118 56.6793H622.509L636 50.7915" stroke="#7F56D9" stroke-width="2" stroke-linecap="round" stroke-linejoin="round"/>
<defs>
<linearGradient id="paint0_linear_279_1199" x1="317.5" y1="0" x2="317.5" y2="166" gradientUnits="userSpaceOnUse">
<stop/>
<stop offset="1" stop-opacity="0"/>
</linearGradient>
</defs>
</svg>
