<svg width="32" height="32" viewBox="0 0 32 32" fill="none" xmlns="http://www.w3.org/2000/svg">
<g clip-path="url(#clip0_248_3169)">
<path d="M0 12.8C0 8.31958 0 6.07937 0.871948 4.36808C1.63893 2.86278 2.86278 1.63893 4.36808 0.871948C6.07937 0 8.31958 0 12.8 0H19.2C23.6804 0 25.9206 0 27.6319 0.871948C29.1372 1.63893 30.3611 2.86278 31.1281 4.36808C32 6.07937 32 8.31958 32 12.8V19.2C32 23.6804 32 25.9206 31.1281 27.6319C30.3611 29.1372 29.1372 30.3611 27.6319 31.1281C25.9206 32 23.6804 32 19.2 32H12.8C8.31958 32 6.07937 32 4.36808 31.1281C2.86278 30.3611 1.63893 29.1372 0.871948 27.6319C0 25.9206 0 23.6804 0 19.2V12.8Z" fill="white"/>
<path d="M0 12.8C0 8.31958 0 6.07937 0.871948 4.36808C1.63893 2.86278 2.86278 1.63893 4.36808 0.871948C6.07937 0 8.31958 0 12.8 0H19.2C23.6804 0 25.9206 0 27.6319 0.871948C29.1372 1.63893 30.3611 2.86278 31.1281 4.36808C32 6.07937 32 8.31958 32 12.8V19.2C32 23.6804 32 25.9206 31.1281 27.6319C30.3611 29.1372 29.1372 30.3611 27.6319 31.1281C25.9206 32 23.6804 32 19.2 32H12.8C8.31958 32 6.07937 32 4.36808 31.1281C2.86278 30.3611 1.63893 29.1372 0.871948 27.6319C0 25.9206 0 23.6804 0 19.2V12.8Z" fill="url(#paint0_linear_248_3169)"/>
<path fill-rule="evenodd" clip-rule="evenodd" d="M16 2.03885C8.28948 2.03885 2.03885 8.28948 2.03885 16C2.03885 23.7106 8.28948 29.9612 16 29.9612C23.7106 29.9612 29.9612 23.7106 29.9612 16C29.9612 8.28948 23.7106 2.03885 16 2.03885ZM1.96118 16C1.96118 8.24658 8.24658 1.96118 16 1.96118C23.7535 1.96118 30.0389 8.24658 30.0389 16C30.0389 23.7535 23.7535 30.0389 16 30.0389C8.24658 30.0389 1.96118 23.7535 1.96118 16Z" fill="#D0D5DD"/>
<path fill-rule="evenodd" clip-rule="evenodd" d="M16 12.0779C13.8338 12.0779 12.0777 13.834 12.0777 16.0002C12.0777 18.1665 13.8338 19.9226 16 19.9226C18.1662 19.9226 19.9223 18.1665 19.9223 16.0002C19.9223 13.834 18.1662 12.0779 16 12.0779ZM12 16.0002C12 13.7911 13.7909 12.0002 16 12.0002C18.2091 12.0002 20 13.7911 20 16.0002C20 18.2094 18.2091 20.0002 16 20.0002C13.7909 20.0002 12 18.2094 12 16.0002Z" fill="#D0D5DD"/>
<path fill-rule="evenodd" clip-rule="evenodd" d="M16 13.3201C14.5201 13.3201 13.3204 14.5198 13.3204 15.9997C13.3204 17.4796 14.5201 18.6793 16 18.6793C17.4799 18.6793 18.6796 17.4796 18.6796 15.9997C18.6796 14.5198 17.4799 13.3201 16 13.3201ZM13.2427 15.9997C13.2427 14.4769 14.4772 13.2424 16 13.2424C17.5228 13.2424 18.7573 14.4769 18.7573 15.9997C18.7573 17.5225 17.5228 18.757 16 18.757C14.4772 18.757 13.2427 17.5225 13.2427 15.9997Z" fill="#D0D5DD"/>
<path d="M15.9612 0H16.0389V32H15.9612V0Z" fill="#D0D5DD"/>
<path d="M32 15.9609L32 16.0386L-3.39506e-09 16.0386L0 15.9609L32 15.9609Z" fill="#D0D5DD"/>
<path d="M26.6019 0H26.6796V32H26.6019V0Z" fill="#D0D5DD"/>
<path d="M10.6407 0H10.7184V32H10.6407V0Z" fill="#D0D5DD"/>
<path d="M21.2816 0H21.3592V32H21.2816V0Z" fill="#D0D5DD"/>
<path d="M5.32037 0H5.39804V32H5.32037V0Z" fill="#D0D5DD"/>
<path d="M32 26.6016L32 26.6792L-3.39506e-09 26.6792L0 26.6016L32 26.6016Z" fill="#D0D5DD"/>
<path d="M32 10.6406L32 10.7183L-3.39506e-09 10.7183L0 10.6406L32 10.6406Z" fill="#D0D5DD"/>
<path d="M32 21.2812L32 21.3589L-3.39506e-09 21.3589L0 21.2812L32 21.2812Z" fill="#D0D5DD"/>
<path d="M32 5.32031L32 5.39798L-3.39506e-09 5.39798L0 5.32031L32 5.32031Z" fill="#D0D5DD"/>
<g filter="url(#filter0_dd_248_3169)">
<circle cx="16" cy="16" r="8" fill="url(#paint1_linear_248_3169)"/>
</g>
<g filter="url(#filter1_b_248_3169)">
<path d="M0 0H32V19.2C32 23.6804 32 25.9206 31.1281 27.6319C30.3611 29.1372 29.1372 30.3611 27.6319 31.1281C25.9206 32 23.6804 32 19.2 32H12.8C8.31958 32 6.07937 32 4.36808 31.1281C2.86278 30.3611 1.63893 29.1372 0.871948 27.6319C0 25.9206 0 23.6804 0 19.2V0Z" fill="white" fill-opacity="0.2"/>
</g>
</g>
<path d="M0.1 12.8C0.1 10.5581 0.100078 8.88276 0.208661 7.55376C0.31715 6.22593 0.533455 5.25268 0.961049 4.41348C1.71845 2.92699 2.92699 1.71845 4.41348 0.961049C5.25268 0.533455 6.22593 0.31715 7.55376 0.208661C8.88276 0.100078 10.5581 0.1 12.8 0.1H19.2C21.4419 0.1 23.1172 0.100078 24.4462 0.208661C25.7741 0.31715 26.7473 0.533455 27.5865 0.961049C29.073 1.71845 30.2816 2.92699 31.039 4.41348C31.4665 5.25268 31.6828 6.22593 31.7913 7.55376C31.8999 8.88276 31.9 10.5581 31.9 12.8V19.2C31.9 21.4419 31.8999 23.1172 31.7913 24.4462C31.6828 25.7741 31.4665 26.7473 31.039 27.5865C30.2816 29.073 29.073 30.2816 27.5865 31.039C26.7473 31.4665 25.7741 31.6828 24.4462 31.7913C23.1172 31.8999 21.4419 31.9 19.2 31.9H12.8C10.5581 31.9 8.88276 31.8999 7.55376 31.7913C6.22593 31.6828 5.25268 31.4665 4.41348 31.039C2.92699 30.2816 1.71845 29.073 0.961049 27.5865C0.533455 26.7473 0.31715 25.7741 0.208661 24.4462C0.100078 23.1172 0.1 21.4419 0.1 19.2V12.8Z" stroke="#D0D5DD" stroke-width="0.2"/>
<defs>
<filter id="filter0_dd_248_3169" x="5" y="6" width="22" height="22" filterUnits="userSpaceOnUse" color-interpolation-filters="sRGB">
<feFlood flood-opacity="0" result="BackgroundImageFix"/>
<feColorMatrix in="SourceAlpha" type="matrix" values="0 0 0 0 0 0 0 0 0 0 0 0 0 0 0 0 0 0 127 0" result="hardAlpha"/>
<feOffset dy="1"/>
<feGaussianBlur stdDeviation="1"/>
<feColorMatrix type="matrix" values="0 0 0 0 0.0627451 0 0 0 0 0.0941176 0 0 0 0 0.156863 0 0 0 0.06 0"/>
<feBlend mode="normal" in2="BackgroundImageFix" result="effect1_dropShadow_248_3169"/>
<feColorMatrix in="SourceAlpha" type="matrix" values="0 0 0 0 0 0 0 0 0 0 0 0 0 0 0 0 0 0 127 0" result="hardAlpha"/>
<feOffset dy="1"/>
<feGaussianBlur stdDeviation="1.5"/>
<feColorMatrix type="matrix" values="0 0 0 0 0.0627451 0 0 0 0 0.0941176 0 0 0 0 0.156863 0 0 0 0.1 0"/>
<feBlend mode="normal" in2="effect1_dropShadow_248_3169" result="effect2_dropShadow_248_3169"/>
<feBlend mode="normal" in="SourceGraphic" in2="effect2_dropShadow_248_3169" result="shape"/>
</filter>
<filter id="filter1_b_248_3169" x="-5" y="-5" width="42" height="42" filterUnits="userSpaceOnUse" color-interpolation-filters="sRGB">
<feFlood flood-opacity="0" result="BackgroundImageFix"/>
<feGaussianBlur in="BackgroundImageFix" stdDeviation="2.5"/>
<feComposite in2="SourceAlpha" operator="in" result="effect1_backgroundBlur_248_3169"/>
<feBlend mode="normal" in="SourceGraphic" in2="effect1_backgroundBlur_248_3169" result="shape"/>
</filter>
<linearGradient id="paint0_linear_248_3169" x1="16" y1="0" x2="16" y2="32" gradientUnits="userSpaceOnUse">
<stop stop-color="white"/>
<stop offset="1" stop-color="#D0D5DD"/>
</linearGradient>
<linearGradient id="paint1_linear_248_3169" x1="12" y1="24" x2="20" y2="8" gradientUnits="userSpaceOnUse">
<stop stop-color="#53389E"/>
<stop offset="1" stop-color="#6941C6"/>
</linearGradient>
<clipPath id="clip0_248_3169">
<path d="M0 12.8C0 8.31958 0 6.07937 0.871948 4.36808C1.63893 2.86278 2.86278 1.63893 4.36808 0.871948C6.07937 0 8.31958 0 12.8 0H19.2C23.6804 0 25.9206 0 27.6319 0.871948C29.1372 1.63893 30.3611 2.86278 31.1281 4.36808C32 6.07937 32 8.31958 32 12.8V19.2C32 23.6804 32 25.9206 31.1281 27.6319C30.3611 29.1372 29.1372 30.3611 27.6319 31.1281C25.9206 32 23.6804 32 19.2 32H12.8C8.31958 32 6.07937 32 4.36808 31.1281C2.86278 30.3611 1.63893 29.1372 0.871948 27.6319C0 25.9206 0 23.6804 0 19.2V12.8Z" fill="white"/>
</clipPath>
</defs>
</svg>
